<mxfile host="app.diagrams.net" agent="Mozilla/5.0 (Windows NT 10.0; Win64; x64) AppleWebKit/537.36 (KHTML, like Gecko) Chrome/129.0.0.0 Safari/537.36 Edg/129.0.0.0" version="24.7.17">
  <diagram name="Trang-1" id="RufHjK9E6aXaLeSwLsm4">
    <mxGraphModel dx="1050" dy="577" grid="1" gridSize="10" guides="1" tooltips="1" connect="1" arrows="1" fold="1" page="1" pageScale="1" pageWidth="827" pageHeight="1169" math="0" shadow="0">
      <root>
        <mxCell id="0" />
        <mxCell id="1" parent="0" />
        <mxCell id="RsUXzZqsvfAK03JmZOyM-4" value="" style="edgeStyle=orthogonalEdgeStyle;rounded=0;orthogonalLoop=1;jettySize=auto;html=1;" parent="1" source="RsUXzZqsvfAK03JmZOyM-1" target="RsUXzZqsvfAK03JmZOyM-2" edge="1">
          <mxGeometry relative="1" as="geometry" />
        </mxCell>
        <mxCell id="RsUXzZqsvfAK03JmZOyM-1" value="Bắt đầu" style="ellipse;whiteSpace=wrap;html=1;" parent="1" vertex="1">
          <mxGeometry x="320" y="20" width="120" height="80" as="geometry" />
        </mxCell>
        <mxCell id="RsUXzZqsvfAK03JmZOyM-5" value="" style="edgeStyle=orthogonalEdgeStyle;rounded=0;orthogonalLoop=1;jettySize=auto;html=1;" parent="1" source="RsUXzZqsvfAK03JmZOyM-2" target="RsUXzZqsvfAK03JmZOyM-3" edge="1">
          <mxGeometry relative="1" as="geometry" />
        </mxCell>
        <mxCell id="RsUXzZqsvfAK03JmZOyM-2" value="Nhập các Points" style="shape=parallelogram;perimeter=parallelogramPerimeter;whiteSpace=wrap;html=1;fixedSize=1;" parent="1" vertex="1">
          <mxGeometry x="320" y="120" width="120" height="60" as="geometry" />
        </mxCell>
        <mxCell id="RsUXzZqsvfAK03JmZOyM-7" value="" style="edgeStyle=orthogonalEdgeStyle;rounded=0;orthogonalLoop=1;jettySize=auto;html=1;" parent="1" source="RsUXzZqsvfAK03JmZOyM-3" target="RsUXzZqsvfAK03JmZOyM-6" edge="1">
          <mxGeometry relative="1" as="geometry" />
        </mxCell>
        <mxCell id="RsUXzZqsvfAK03JmZOyM-8" value="Yes" style="edgeLabel;html=1;align=center;verticalAlign=middle;resizable=0;points=[];" parent="RsUXzZqsvfAK03JmZOyM-7" vertex="1" connectable="0">
          <mxGeometry x="-0.08" y="1" relative="1" as="geometry">
            <mxPoint as="offset" />
          </mxGeometry>
        </mxCell>
        <mxCell id="RsUXzZqsvfAK03JmZOyM-10" value="" style="edgeStyle=orthogonalEdgeStyle;rounded=0;orthogonalLoop=1;jettySize=auto;html=1;" parent="1" source="RsUXzZqsvfAK03JmZOyM-3" target="RsUXzZqsvfAK03JmZOyM-9" edge="1">
          <mxGeometry relative="1" as="geometry" />
        </mxCell>
        <mxCell id="RsUXzZqsvfAK03JmZOyM-11" value="No" style="edgeLabel;html=1;align=center;verticalAlign=middle;resizable=0;points=[];" parent="RsUXzZqsvfAK03JmZOyM-10" vertex="1" connectable="0">
          <mxGeometry x="-0.664" y="1" relative="1" as="geometry">
            <mxPoint as="offset" />
          </mxGeometry>
        </mxCell>
        <mxCell id="RsUXzZqsvfAK03JmZOyM-3" value="right - left &amp;lt;= 1" style="rhombus;whiteSpace=wrap;html=1;" parent="1" vertex="1">
          <mxGeometry x="330" y="210" width="100" height="80" as="geometry" />
        </mxCell>
        <mxCell id="RsUXzZqsvfAK03JmZOyM-6" value="return INTMAX" style="html=1;shadow=0;dashed=0;align=center;verticalAlign=middle;shape=mxgraph.arrows2.arrow;dy=0.6;dx=40;flipH=1;notch=0;" parent="1" vertex="1">
          <mxGeometry x="190" y="215" width="100" height="70" as="geometry" />
        </mxCell>
        <mxCell id="RsUXzZqsvfAK03JmZOyM-13" value="" style="edgeStyle=orthogonalEdgeStyle;rounded=0;orthogonalLoop=1;jettySize=auto;html=1;" parent="1" source="RsUXzZqsvfAK03JmZOyM-9" target="RsUXzZqsvfAK03JmZOyM-12" edge="1">
          <mxGeometry relative="1" as="geometry" />
        </mxCell>
        <mxCell id="RsUXzZqsvfAK03JmZOyM-9" value="mid = left + (right-left)/2" style="rounded=0;whiteSpace=wrap;html=1;" parent="1" vertex="1">
          <mxGeometry x="310" y="320" width="140" height="60" as="geometry" />
        </mxCell>
        <mxCell id="RsUXzZqsvfAK03JmZOyM-15" value="" style="edgeStyle=orthogonalEdgeStyle;rounded=0;orthogonalLoop=1;jettySize=auto;html=1;" parent="1" source="RsUXzZqsvfAK03JmZOyM-12" target="RsUXzZqsvfAK03JmZOyM-14" edge="1">
          <mxGeometry relative="1" as="geometry" />
        </mxCell>
        <mxCell id="RsUXzZqsvfAK03JmZOyM-12" value="Đệ quy nửa trái và nửa phải" style="rounded=0;whiteSpace=wrap;html=1;" parent="1" vertex="1">
          <mxGeometry x="320" y="400" width="120" height="60" as="geometry" />
        </mxCell>
        <mxCell id="RsUXzZqsvfAK03JmZOyM-19" value="" style="edgeStyle=orthogonalEdgeStyle;rounded=0;orthogonalLoop=1;jettySize=auto;html=1;" parent="1" source="RsUXzZqsvfAK03JmZOyM-14" target="RsUXzZqsvfAK03JmZOyM-16" edge="1">
          <mxGeometry relative="1" as="geometry" />
        </mxCell>
        <mxCell id="RsUXzZqsvfAK03JmZOyM-14" value="minDis = min(minLeft, minRight)&lt;div&gt;i = left&lt;/div&gt;" style="rounded=0;whiteSpace=wrap;html=1;" parent="1" vertex="1">
          <mxGeometry x="287.5" y="490" width="185" height="70" as="geometry" />
        </mxCell>
        <mxCell id="RsUXzZqsvfAK03JmZOyM-21" value="" style="edgeStyle=orthogonalEdgeStyle;rounded=0;orthogonalLoop=1;jettySize=auto;html=1;" parent="1" source="RsUXzZqsvfAK03JmZOyM-16" target="RsUXzZqsvfAK03JmZOyM-20" edge="1">
          <mxGeometry relative="1" as="geometry" />
        </mxCell>
        <mxCell id="RsUXzZqsvfAK03JmZOyM-22" value="Yes" style="edgeLabel;html=1;align=center;verticalAlign=middle;resizable=0;points=[];" parent="RsUXzZqsvfAK03JmZOyM-21" vertex="1" connectable="0">
          <mxGeometry x="-0.0171" y="1" relative="1" as="geometry">
            <mxPoint as="offset" />
          </mxGeometry>
        </mxCell>
        <mxCell id="RsUXzZqsvfAK03JmZOyM-33" value="" style="edgeStyle=orthogonalEdgeStyle;rounded=0;orthogonalLoop=1;jettySize=auto;html=1;" parent="1" source="RsUXzZqsvfAK03JmZOyM-16" target="RsUXzZqsvfAK03JmZOyM-32" edge="1">
          <mxGeometry relative="1" as="geometry" />
        </mxCell>
        <mxCell id="RsUXzZqsvfAK03JmZOyM-34" value="No" style="edgeLabel;html=1;align=center;verticalAlign=middle;resizable=0;points=[];" parent="RsUXzZqsvfAK03JmZOyM-33" vertex="1" connectable="0">
          <mxGeometry x="-0.1867" y="-1" relative="1" as="geometry">
            <mxPoint as="offset" />
          </mxGeometry>
        </mxCell>
        <mxCell id="RsUXzZqsvfAK03JmZOyM-16" value="i &amp;lt; right" style="rhombus;whiteSpace=wrap;html=1;" parent="1" vertex="1">
          <mxGeometry x="340" y="585" width="80" height="80" as="geometry" />
        </mxCell>
        <mxCell id="RsUXzZqsvfAK03JmZOyM-26" value="" style="edgeStyle=orthogonalEdgeStyle;rounded=0;orthogonalLoop=1;jettySize=auto;html=1;" parent="1" source="RsUXzZqsvfAK03JmZOyM-20" target="RsUXzZqsvfAK03JmZOyM-23" edge="1">
          <mxGeometry relative="1" as="geometry" />
        </mxCell>
        <mxCell id="RsUXzZqsvfAK03JmZOyM-27" value="Yes" style="edgeLabel;html=1;align=center;verticalAlign=middle;resizable=0;points=[];" parent="RsUXzZqsvfAK03JmZOyM-26" vertex="1" connectable="0">
          <mxGeometry x="-0.04" relative="1" as="geometry">
            <mxPoint as="offset" />
          </mxGeometry>
        </mxCell>
        <mxCell id="RsUXzZqsvfAK03JmZOyM-20" value="abs(points[i].x−points[mid].x)&lt;div&gt;&amp;lt; minDis&lt;/div&gt;" style="rhombus;whiteSpace=wrap;html=1;" parent="1" vertex="1">
          <mxGeometry x="80" y="570" width="190" height="110" as="geometry" />
        </mxCell>
        <mxCell id="RsUXzZqsvfAK03JmZOyM-23" value="strip.push_back(points[i])" style="rounded=0;whiteSpace=wrap;html=1;" parent="1" vertex="1">
          <mxGeometry x="102.5" y="450" width="145" height="60" as="geometry" />
        </mxCell>
        <mxCell id="RsUXzZqsvfAK03JmZOyM-28" value="i++" style="rounded=0;whiteSpace=wrap;html=1;" parent="1" vertex="1">
          <mxGeometry x="250" y="690" width="50" height="20" as="geometry" />
        </mxCell>
        <mxCell id="RsUXzZqsvfAK03JmZOyM-29" value="" style="endArrow=classic;html=1;rounded=0;entryX=0;entryY=0.5;entryDx=0;entryDy=0;exitX=0.5;exitY=1;exitDx=0;exitDy=0;" parent="1" source="RsUXzZqsvfAK03JmZOyM-20" target="RsUXzZqsvfAK03JmZOyM-28" edge="1">
          <mxGeometry width="50" height="50" relative="1" as="geometry">
            <mxPoint x="130" y="780" as="sourcePoint" />
            <mxPoint x="180" y="730" as="targetPoint" />
            <Array as="points">
              <mxPoint x="175" y="700" />
            </Array>
          </mxGeometry>
        </mxCell>
        <mxCell id="RsUXzZqsvfAK03JmZOyM-30" value="No" style="edgeLabel;html=1;align=center;verticalAlign=middle;resizable=0;points=[];" parent="RsUXzZqsvfAK03JmZOyM-29" vertex="1" connectable="0">
          <mxGeometry x="0.1495" y="-3" relative="1" as="geometry">
            <mxPoint as="offset" />
          </mxGeometry>
        </mxCell>
        <mxCell id="RsUXzZqsvfAK03JmZOyM-31" value="" style="endArrow=classic;html=1;rounded=0;entryX=0.5;entryY=1;entryDx=0;entryDy=0;exitX=1;exitY=0.5;exitDx=0;exitDy=0;" parent="1" source="RsUXzZqsvfAK03JmZOyM-28" target="RsUXzZqsvfAK03JmZOyM-16" edge="1">
          <mxGeometry width="50" height="50" relative="1" as="geometry">
            <mxPoint x="390" y="820" as="sourcePoint" />
            <mxPoint x="440" y="770" as="targetPoint" />
            <Array as="points">
              <mxPoint x="380" y="700" />
            </Array>
          </mxGeometry>
        </mxCell>
        <mxCell id="RsUXzZqsvfAK03JmZOyM-36" value="" style="edgeStyle=orthogonalEdgeStyle;rounded=0;orthogonalLoop=1;jettySize=auto;html=1;" parent="1" source="RsUXzZqsvfAK03JmZOyM-32" target="RsUXzZqsvfAK03JmZOyM-35" edge="1">
          <mxGeometry relative="1" as="geometry" />
        </mxCell>
        <mxCell id="RsUXzZqsvfAK03JmZOyM-32" value="j = 0" style="rounded=0;whiteSpace=wrap;html=1;" parent="1" vertex="1">
          <mxGeometry x="490" y="607.5" width="90" height="35" as="geometry" />
        </mxCell>
        <mxCell id="RsUXzZqsvfAK03JmZOyM-38" value="" style="edgeStyle=orthogonalEdgeStyle;rounded=0;orthogonalLoop=1;jettySize=auto;html=1;" parent="1" source="RsUXzZqsvfAK03JmZOyM-35" target="RsUXzZqsvfAK03JmZOyM-37" edge="1">
          <mxGeometry relative="1" as="geometry" />
        </mxCell>
        <mxCell id="RsUXzZqsvfAK03JmZOyM-39" value="Yes" style="edgeLabel;html=1;align=center;verticalAlign=middle;resizable=0;points=[];" parent="RsUXzZqsvfAK03JmZOyM-38" vertex="1" connectable="0">
          <mxGeometry x="-0.4933" y="1" relative="1" as="geometry">
            <mxPoint as="offset" />
          </mxGeometry>
        </mxCell>
        <mxCell id="RsUXzZqsvfAK03JmZOyM-59" value="" style="edgeStyle=orthogonalEdgeStyle;rounded=0;orthogonalLoop=1;jettySize=auto;html=1;" parent="1" source="RsUXzZqsvfAK03JmZOyM-35" target="RsUXzZqsvfAK03JmZOyM-58" edge="1">
          <mxGeometry relative="1" as="geometry" />
        </mxCell>
        <mxCell id="RsUXzZqsvfAK03JmZOyM-60" value="No" style="edgeLabel;html=1;align=center;verticalAlign=middle;resizable=0;points=[];" parent="RsUXzZqsvfAK03JmZOyM-59" vertex="1" connectable="0">
          <mxGeometry x="0.4182" y="1" relative="1" as="geometry">
            <mxPoint as="offset" />
          </mxGeometry>
        </mxCell>
        <mxCell id="RsUXzZqsvfAK03JmZOyM-35" value="j &amp;lt; strip.size" style="rhombus;whiteSpace=wrap;html=1;" parent="1" vertex="1">
          <mxGeometry x="640" y="585" width="80" height="80" as="geometry" />
        </mxCell>
        <mxCell id="RsUXzZqsvfAK03JmZOyM-41" value="" style="edgeStyle=orthogonalEdgeStyle;rounded=0;orthogonalLoop=1;jettySize=auto;html=1;" parent="1" source="RsUXzZqsvfAK03JmZOyM-37" target="RsUXzZqsvfAK03JmZOyM-40" edge="1">
          <mxGeometry relative="1" as="geometry" />
        </mxCell>
        <mxCell id="RsUXzZqsvfAK03JmZOyM-42" value="Yes" style="edgeLabel;html=1;align=center;verticalAlign=middle;resizable=0;points=[];" parent="RsUXzZqsvfAK03JmZOyM-41" vertex="1" connectable="0">
          <mxGeometry x="-0.08" y="2" relative="1" as="geometry">
            <mxPoint as="offset" />
          </mxGeometry>
        </mxCell>
        <mxCell id="RsUXzZqsvfAK03JmZOyM-37" value="k = j + 1" style="rounded=0;whiteSpace=wrap;html=1;" parent="1" vertex="1">
          <mxGeometry x="635" y="520" width="90" height="30" as="geometry" />
        </mxCell>
        <mxCell id="RsUXzZqsvfAK03JmZOyM-46" value="" style="edgeStyle=orthogonalEdgeStyle;rounded=0;orthogonalLoop=1;jettySize=auto;html=1;" parent="1" source="RsUXzZqsvfAK03JmZOyM-40" target="RsUXzZqsvfAK03JmZOyM-45" edge="1">
          <mxGeometry relative="1" as="geometry" />
        </mxCell>
        <mxCell id="RsUXzZqsvfAK03JmZOyM-47" value="Yes" style="edgeLabel;html=1;align=center;verticalAlign=middle;resizable=0;points=[];" parent="RsUXzZqsvfAK03JmZOyM-46" vertex="1" connectable="0">
          <mxGeometry x="0.256" y="1" relative="1" as="geometry">
            <mxPoint as="offset" />
          </mxGeometry>
        </mxCell>
        <mxCell id="RsUXzZqsvfAK03JmZOyM-40" value="k &amp;lt; strip.size" style="rhombus;whiteSpace=wrap;html=1;" parent="1" vertex="1">
          <mxGeometry x="635" y="420" width="90" height="60" as="geometry" />
        </mxCell>
        <mxCell id="RsUXzZqsvfAK03JmZOyM-43" value="" style="endArrow=classic;html=1;rounded=0;exitX=1;exitY=0.5;exitDx=0;exitDy=0;entryX=1;entryY=0.5;entryDx=0;entryDy=0;" parent="1" source="RsUXzZqsvfAK03JmZOyM-40" target="RsUXzZqsvfAK03JmZOyM-35" edge="1">
          <mxGeometry width="50" height="50" relative="1" as="geometry">
            <mxPoint x="740" y="530" as="sourcePoint" />
            <mxPoint x="790" y="480" as="targetPoint" />
            <Array as="points">
              <mxPoint x="790" y="450" />
              <mxPoint x="790" y="625" />
            </Array>
          </mxGeometry>
        </mxCell>
        <mxCell id="RsUXzZqsvfAK03JmZOyM-44" value="No" style="edgeLabel;html=1;align=center;verticalAlign=middle;resizable=0;points=[];" parent="RsUXzZqsvfAK03JmZOyM-43" vertex="1" connectable="0">
          <mxGeometry x="0.0232" y="-3" relative="1" as="geometry">
            <mxPoint as="offset" />
          </mxGeometry>
        </mxCell>
        <mxCell id="RsUXzZqsvfAK03JmZOyM-49" value="" style="edgeStyle=orthogonalEdgeStyle;rounded=0;orthogonalLoop=1;jettySize=auto;html=1;" parent="1" source="RsUXzZqsvfAK03JmZOyM-45" target="RsUXzZqsvfAK03JmZOyM-48" edge="1">
          <mxGeometry relative="1" as="geometry" />
        </mxCell>
        <mxCell id="RsUXzZqsvfAK03JmZOyM-50" value="Yes" style="edgeLabel;html=1;align=center;verticalAlign=middle;resizable=0;points=[];" parent="RsUXzZqsvfAK03JmZOyM-49" vertex="1" connectable="0">
          <mxGeometry x="0.176" y="1" relative="1" as="geometry">
            <mxPoint as="offset" />
          </mxGeometry>
        </mxCell>
        <mxCell id="RsUXzZqsvfAK03JmZOyM-54" value="" style="edgeStyle=orthogonalEdgeStyle;rounded=0;orthogonalLoop=1;jettySize=auto;html=1;" parent="1" source="RsUXzZqsvfAK03JmZOyM-45" target="RsUXzZqsvfAK03JmZOyM-51" edge="1">
          <mxGeometry relative="1" as="geometry" />
        </mxCell>
        <mxCell id="RsUXzZqsvfAK03JmZOyM-55" value="No" style="edgeLabel;html=1;align=center;verticalAlign=middle;resizable=0;points=[];" parent="RsUXzZqsvfAK03JmZOyM-54" vertex="1" connectable="0">
          <mxGeometry x="-0.2329" y="-3" relative="1" as="geometry">
            <mxPoint as="offset" />
          </mxGeometry>
        </mxCell>
        <mxCell id="RsUXzZqsvfAK03JmZOyM-45" value="abs(strip[j].y−strip[i].y)&amp;lt;minDis" style="rhombus;whiteSpace=wrap;html=1;" parent="1" vertex="1">
          <mxGeometry x="607.5" y="310" width="145" height="80" as="geometry" />
        </mxCell>
        <mxCell id="RsUXzZqsvfAK03JmZOyM-48" value="Cập nhật minDis = min(strip[j].y−strip[i].y)" style="rounded=0;whiteSpace=wrap;html=1;" parent="1" vertex="1">
          <mxGeometry x="620" y="200" width="120" height="60" as="geometry" />
        </mxCell>
        <mxCell id="RsUXzZqsvfAK03JmZOyM-51" value="k--" style="rounded=0;whiteSpace=wrap;html=1;" parent="1" vertex="1">
          <mxGeometry x="500" y="335" width="70" height="30" as="geometry" />
        </mxCell>
        <mxCell id="RsUXzZqsvfAK03JmZOyM-56" value="" style="endArrow=classic;html=1;rounded=0;exitX=0.5;exitY=1;exitDx=0;exitDy=0;" parent="1" source="RsUXzZqsvfAK03JmZOyM-51" edge="1">
          <mxGeometry width="50" height="50" relative="1" as="geometry">
            <mxPoint x="530" y="450" as="sourcePoint" />
            <mxPoint x="630" y="450" as="targetPoint" />
            <Array as="points">
              <mxPoint x="535" y="450" />
            </Array>
          </mxGeometry>
        </mxCell>
        <mxCell id="RsUXzZqsvfAK03JmZOyM-57" value="" style="endArrow=classic;html=1;rounded=0;exitX=0;exitY=0.5;exitDx=0;exitDy=0;" parent="1" source="RsUXzZqsvfAK03JmZOyM-48" edge="1">
          <mxGeometry width="50" height="50" relative="1" as="geometry">
            <mxPoint x="520" y="270" as="sourcePoint" />
            <mxPoint x="530" y="330" as="targetPoint" />
            <Array as="points">
              <mxPoint x="530" y="230" />
            </Array>
          </mxGeometry>
        </mxCell>
        <mxCell id="RsUXzZqsvfAK03JmZOyM-62" value="" style="edgeStyle=orthogonalEdgeStyle;rounded=0;orthogonalLoop=1;jettySize=auto;html=1;" parent="1" source="RsUXzZqsvfAK03JmZOyM-58" target="RsUXzZqsvfAK03JmZOyM-61" edge="1">
          <mxGeometry relative="1" as="geometry" />
        </mxCell>
        <mxCell id="RsUXzZqsvfAK03JmZOyM-58" value="return minDis" style="html=1;shadow=0;dashed=0;align=center;verticalAlign=middle;shape=mxgraph.arrows2.arrow;dy=0.6;dx=40;flipH=1;notch=0;" parent="1" vertex="1">
          <mxGeometry x="630" y="710" width="100" height="70" as="geometry" />
        </mxCell>
        <mxCell id="RsUXzZqsvfAK03JmZOyM-61" value="Kết thúc" style="ellipse;whiteSpace=wrap;html=1;" parent="1" vertex="1">
          <mxGeometry x="460" y="705" width="120" height="80" as="geometry" />
        </mxCell>
      </root>
    </mxGraphModel>
  </diagram>
</mxfile>
